<svg enable-background="new 0 0 128 128" viewBox="0 0 128 128" xmlns="http://www.w3.org/2000/svg" xmlns:xlink="http://www.w3.org/1999/xlink"><linearGradient id="a"><stop offset=".5086" stop-color="#f06292"/><stop offset="1" stop-color="#c2185b" stop-opacity=".9665"/></linearGradient><linearGradient id="b" gradientUnits="userSpaceOnUse" x1="57.9489" x2="90.1968" xlink:href="#a" y1="25.6284" y2="25.2265"/><linearGradient id="c" gradientTransform="matrix(.6734 .6734 -.6559 .6559 77.3136 -20.5832)" gradientUnits="userSpaceOnUse" x1="52.6458" x2="52.6458" y1="188.4987" y2="57.9383"><stop offset="0" stop-color="#757575"/><stop offset="1" stop-color="#bdbdbd"/></linearGradient><linearGradient id="d" gradientUnits="userSpaceOnUse" x1="116.4608" x2="-10.945" y1="4.0022" y2="140.0387"><stop offset="0" stop-color="#fce8b2"/><stop offset="1" stop-color="#fce8b2" stop-opacity="0"/></linearGradient><linearGradient id="e" gradientUnits="userSpaceOnUse" x1="102.0469" x2="110.6535" y1="24.0113" y2="32.0324"><stop offset="0" stop-color="#455a64"/><stop offset=".8375" stop-color="#455a64" stop-opacity="0"/></linearGradient><radialGradient id="f" cx="103.2703" cy="33.5733" gradientTransform="matrix(.3711 .9286 -.6257 .25 85.9564 -70.7181)" gradientUnits="userSpaceOnUse" r="8.2851"><stop offset=".374" stop-color="#212121" stop-opacity="0"/><stop offset="1" stop-color="#212121"/></radialGradient><radialGradient id="g" cx="44.2261" cy="84.2583" gradientTransform="matrix(.9868 .1618 -.0723 .4413 6.6777 39.9177)" gradientUnits="userSpaceOnUse" r="18.5712"><stop offset=".475" stop-color="#212121" stop-opacity="0"/><stop offset="1" stop-color="#212121"/></radialGradient><linearGradient id="h" gradientUnits="userSpaceOnUse" x1="77.3822" x2="67.1776" xlink:href="#a" y1="57.8392" y2="32.4521"/><path d="m61.04 37.52c9.86-3.61 20.05-7.34 28.52-8.86 1.23-.22 2.43-.4 3.59-.52 2.06-2.28 4.96-3.17 6.69-5.08-3.22-.11-6.73.17-10.51.85-9 1.62-19.45 5.44-29.55 9.14-16.18 5.92-31.47 11.82-40.71 7.94-2.26-.95-4.91-2.18-6.5-6.7-3.35-9.56 9.36-22.02 15.59-23.97 17.61-5.5 20.8 12.99 20.8 12.99s1-.47.81-3.94c-.37-6.68-4.42-17.1-20.63-13.98-9.7 1.86-24.78 16.11-21.31 29.67 1.2 4.69 3.71 8.08 7.47 10.06 10.24 5.39 27.48-.92 45.74-7.6z" fill="url(#b)"/><path d="m121.04 6.12c-2.76-2.61-6.57-3.26-11.94-.15-3.36 1.95-7.25 5.49-12.15 10.59-8.18 8.5-74.37 82.47-91.08 101.78-2.32 2.68-2.37 4.29-1.84 4.81.52.52 1.95.39 4.76-1.95 19.24-16.05 93.01-81.21 102.33-90.48 4.16-4.14 7.68-7.88 9.18-9.68 5.13-6.13 4.01-11.82.74-14.92zm-24.39 29.88c-1.41 1.41-3.11 2.22-4.31 1.02s-1.03-3.34.38-4.76l17.79-17.79c1.41-1.41 3.55-1.58 4.76-.38 1.2 1.2.59 2.71-.82 4.12z" fill="url(#c)"/><path d="m99.95 17.69c5.55-5.91 9.51-9.57 12.83-11.06 6.17-2.78 9.14.42 8.85.11-2.64-2.85-6.28-4.14-12.09-1-3.45 1.86-7.26 5.27-12.6 10.83-8.16 8.51-74.62 82.69-91.08 101.78-2.31 2.68-2.49 4.44-1.66 4.88 16.75-19.17 87.68-96.95 95.75-105.54z" fill="url(#d)" opacity=".6"/><path d="m117.76 12.81c-2.57-1.59-4.91-.9-7.36 1.53 0 0 .19-.1.48-.19 1.4-1.15 3.32-1.24 4.44-.12 1.2 1.2.53 2.77-.88 4.18l-17.79 17.79c-1.41 1.41-3.05 2.16-4.25.96s-1.03-3.34.38-4.76l.57-.57s-6.17 4.07-2.18 8.17c2.11 2.16 5.88.96 7.39-.6l19-19.52c1.51-1.55 2.78-5.27.2-6.87z" fill="url(#e)"/><path d="m100.61 32.15s2.49.02 3.34 1.08.39 3.84.59 3.64 4.87-4.58 6.15-5.86-1.65-4.66-1.65-4.66h-2.73z" fill="url(#f)" opacity=".7"/><path d="m49.69 85.69 9.97-8.74-13.82-3.76-8.21 9.25c5.35 3.67 12.06 3.25 12.06 3.25z" fill="url(#g)" opacity=".7"/><path d="m114.77 28.5c-5.15-5.3-13.17-5.3-13.17-5.3l-4.69 4.69c7.01-.35 11.15 1.28 14.8 4.8 4.21 4.07 5.45 10.42 4.8 14.9-3.5 24.26-36.17 28.31-36.5 28.35-28.89 3.34-44.59-8.49-53.06-20.2 0 0-.97 6.48 5.24 12.11 8.06 7.3 19.48 13.63 38.39 13.63 3.4 0 7.02-.21 10.86-.65 13.04-1.51 36.62-8.92 39.95-32.08.82-5.6-.62-14.08-6.62-20.25z" fill="url(#h)"/></svg>